<svg id="instagram" xmlns="http://www.w3.org/2000/svg" width="20" height="20" viewBox="0 0 20 20">
  <g id="Group_64" data-name="Group 64" transform="translate(15.354 3.707)">
    <g id="Group_63" data-name="Group 63">
      <path id="Path_5" data-name="Path 5" d="M392.871,94.739a.47.47,0,1,0,.47.47A.47.47,0,0,0,392.871,94.739Z" transform="translate(-392.401 -94.739)"/>
    </g>
  </g>
  <g id="Group_66" data-name="Group 66" transform="translate(5.837 5.837)">
    <g id="Group_65" data-name="Group 65">
      <path id="Path_6" data-name="Path 6" d="M149.967,145.8a4.163,4.163,0,1,0,4.163,4.163A4.168,4.168,0,0,0,149.967,145.8Z" transform="translate(-145.804 -145.804)"/>
    </g>
  </g>
  <g id="Group_68" data-name="Group 68">
    <g id="Group_67" data-name="Group 67">
      <path id="Path_7" data-name="Path 7" d="M14.517,0H5.483A5.489,5.489,0,0,0,0,5.483v9.035A5.489,5.489,0,0,0,5.483,20h9.035A5.489,5.489,0,0,0,20,14.517V5.483A5.489,5.489,0,0,0,14.517,0ZM10,15.486A5.486,5.486,0,1,1,15.486,10,5.492,5.492,0,0,1,10,15.486Zm5.814-9.633A1.667,1.667,0,1,1,17.48,4.186,1.669,1.669,0,0,1,15.814,5.853Z"/>
    </g>
  </g>
</svg>
