<svg id="facebook" xmlns="http://www.w3.org/2000/svg" width="28.047" height="28.047" viewBox="0 0 28.047 28.047">
  <path id="BG_111" data-name="BG 111" d="M0,0H28.047V28.047H0Z" fill="none" opacity="0.58"/>
  <path id="Vector" d="M23.373,16.583c0,4.254-2.536,6.79-6.79,6.79H15.192A1.172,1.172,0,0,1,14.024,22.2V15.461a.584.584,0,0,1,.573-.584l2.057-.035a.373.373,0,0,0,.339-.292l.409-2.232a.354.354,0,0,0-.351-.409l-2.489.035a.594.594,0,0,1-.6-.573l-.047-2.863a.352.352,0,0,1,.351-.351l2.8-.047a.344.344,0,0,0,.351-.351l-.047-2.8a.344.344,0,0,0-.351-.351l-3.155.047a3.5,3.5,0,0,0-3.447,3.564l.058,3.214a.579.579,0,0,1-.573.6l-1.4.023a.344.344,0,0,0-.351.351l.035,2.22a.344.344,0,0,0,.351.351l1.4-.023a.594.594,0,0,1,.6.573l.105,6.661a1.17,1.17,0,0,1-1.169,1.192H6.79c-4.254,0-6.79-2.536-6.79-6.8V6.79C0,2.536,2.536,0,6.79,0h9.793c4.254,0,6.79,2.536,6.79,6.79v9.793Z" transform="translate(2.337 2.337)" fill="#fbdf33"/>
  <path id="Vector-2" data-name="Vector" d="M0,0H28.047V28.047H0Z" fill="none" opacity="0"/>
</svg>
