<svg width="21" height="20" viewBox="0 0 21 20" fill="none" xmlns="http://www.w3.org/2000/svg">
<g clip-path="url(#clip0_45_642)">
<path d="M15.3512 0.000488281H6.17868C4.7441 0.00370578 3.36922 0.57509 2.35493 1.58959C1.34063 2.6041 0.769526 3.9791 0.766602 5.41367L0.766602 14.5862C0.769527 16.021 1.34078 17.3961 2.35532 18.4107C3.36985 19.4252 4.74502 19.9965 6.17979 19.9994H15.3523C16.7871 19.9965 18.1622 19.4252 19.1768 18.4107C20.1913 17.3961 20.7626 16.021 20.7655 14.5862V5.41367C20.7626 3.97871 20.1912 2.60338 19.1764 1.58881C18.1616 0.574247 16.7862 0.00312094 15.3512 0.000488281ZM10.7649 15.4685C9.68337 15.4685 8.62608 15.1477 7.72679 14.5469C6.82749 13.946 6.12658 13.0919 5.71268 12.0927C5.29877 11.0934 5.19048 9.99387 5.40148 8.93308C5.61249 7.87229 6.13332 6.89789 6.8981 6.1331C7.66289 5.36831 8.63729 4.84748 9.69808 4.63648C10.7589 4.42547 11.8584 4.53377 12.8577 4.94767C13.8569 5.36157 14.711 6.06248 15.3119 6.96178C15.9128 7.86108 16.2335 8.91836 16.2335 9.99994C16.2317 11.4497 15.655 12.8397 14.6298 13.8648C13.6047 14.89 12.2147 15.4667 10.7649 15.4685ZM16.3641 5.82105C16.0444 5.82104 15.7318 5.7262 15.466 5.54851C15.2001 5.37082 14.993 5.11827 14.8707 4.82282C14.7484 4.52737 14.7166 4.20229 14.7791 3.88872C14.8417 3.57514 14.9958 3.28717 15.2221 3.06123C15.4483 2.83528 15.7365 2.68153 16.0502 2.61942C16.3638 2.55731 16.6888 2.58963 16.9841 2.7123C17.2794 2.83496 17.5317 3.04246 17.709 3.30853C17.8863 3.57461 17.9807 3.8873 17.9803 4.20705C17.9794 4.63522 17.8088 5.04557 17.5058 5.34813C17.2029 5.65068 16.7923 5.82075 16.3641 5.82105Z" fill="white"/>
<path d="M10.765 5.70483C9.91527 5.70483 9.08465 5.95681 8.37813 6.42888C7.67162 6.90096 7.12096 7.57193 6.79579 8.35696C6.47062 9.14199 6.38553 10.0058 6.5513 10.8392C6.71707 11.6726 7.12625 12.4381 7.72709 13.039C8.32793 13.6398 9.09345 14.049 9.92683 14.2147C10.7602 14.3805 11.624 14.2954 12.4091 13.9703C13.1941 13.6451 13.8651 13.0944 14.3372 12.3879C14.8093 11.6814 15.0612 10.8508 15.0612 10.0011C15.0601 8.86199 14.607 7.7699 13.8016 6.96445C12.9961 6.15901 11.9041 5.70601 10.765 5.70483Z" fill="white"/>
<path d="M16.3642 3.76099C16.2766 3.76099 16.191 3.78695 16.1182 3.8356C16.0454 3.88426 15.9886 3.95342 15.9551 4.03433C15.9216 4.11524 15.9128 4.20427 15.9299 4.29017C15.947 4.37606 15.9892 4.45496 16.0511 4.51688C16.113 4.57881 16.1919 4.62098 16.2778 4.63807C16.3637 4.65515 16.4527 4.64638 16.5337 4.61287C16.6146 4.57935 16.6837 4.5226 16.7324 4.44978C16.781 4.37696 16.807 4.29135 16.807 4.20378C16.807 4.08634 16.7603 3.97372 16.6773 3.89068C16.5943 3.80764 16.4816 3.76099 16.3642 3.76099Z" fill="white"/>
</g>
<defs>
<clipPath id="clip0_45_642">
<rect width="20" height="19.9989" fill="white" transform="translate(0.765625 0.000488281)"/>
</clipPath>
</defs>
</svg>
