<svg id="Group_101" data-name="Group 101" xmlns="http://www.w3.org/2000/svg" width="19.738" height="22.466" viewBox="0 0 19.738 22.466">
  <path id="Path_6566" data-name="Path 6566" d="M51.151,6.015a5.661,5.661,0,0,1-3.42-1.143A5.662,5.662,0,0,1,45.469.39H41.8V10.414l0,5.49a3.325,3.325,0,1,1-2.281-3.151V9.029a7.218,7.218,0,0,0-1.058-.078,7.034,7.034,0,0,0-5.286,2.364,6.893,6.893,0,0,0,.311,9.505,7.158,7.158,0,0,0,.663.579,7.035,7.035,0,0,0,4.312,1.458,7.219,7.219,0,0,0,1.058-.078,7.011,7.011,0,0,0,3.917-1.959,6.868,6.868,0,0,0,2.06-4.887l-.019-8.2a9.3,9.3,0,0,0,5.688,1.933V6.014h-.011Z" transform="translate(-31.423 -0.39)" fill="#fff"/>
</svg>
