<svg id="twitter" xmlns="http://www.w3.org/2000/svg" width="26.292" height="21.362" viewBox="0 0 26.292 21.362">
  <path id="twitter-2" data-name="twitter" d="M26.292,50.529a11.239,11.239,0,0,1-3.106.851A5.36,5.36,0,0,0,25.557,48.4a10.772,10.772,0,0,1-3.418,1.3,5.39,5.39,0,0,0-9.324,3.686,5.55,5.55,0,0,0,.125,1.229,15.257,15.257,0,0,1-11.11-5.638,5.392,5.392,0,0,0,1.656,7.2,5.323,5.323,0,0,1-2.435-.664v.059a5.415,5.415,0,0,0,4.318,5.3,5.38,5.38,0,0,1-1.413.177,4.767,4.767,0,0,1-1.02-.092,5.441,5.441,0,0,0,5.037,3.755,10.831,10.831,0,0,1-6.683,2.3A10.1,10.1,0,0,1,0,66.943a15.174,15.174,0,0,0,8.269,2.419A15.236,15.236,0,0,0,23.61,54.024c0-.238-.008-.468-.02-.7A10.753,10.753,0,0,0,26.292,50.529Z" transform="translate(0 -48)" fill="#fbdf33"/>
</svg>
