<svg width="21" height="20" viewBox="0 0 21 20" fill="none" xmlns="http://www.w3.org/2000/svg">
<g clip-path="url(#clip0_45_660)">
<path d="M14.8072 3.33332H6.47387C5.91794 3.29977 5.36123 3.38456 4.8405 3.58209C4.31977 3.77961 3.84688 4.08538 3.45307 4.4792C3.05926 4.87301 2.75349 5.3459 2.55596 5.86662C2.35844 6.38735 2.27365 6.94407 2.3072 7.49999V12.5C2.27365 13.0559 2.35844 13.6126 2.55596 14.1334C2.75349 14.6541 3.05926 15.127 3.45307 15.5208C3.84688 15.9146 4.31977 16.2204 4.8405 16.4179C5.36123 16.6154 5.91794 16.7002 6.47387 16.6667H14.8072C15.3631 16.7002 15.9198 16.6154 16.4406 16.4179C16.9613 16.2204 17.4342 15.9146 17.828 15.5208C18.2218 15.127 18.5276 14.6541 18.7251 14.1334C18.9226 13.6126 19.0074 13.0559 18.9739 12.5V7.49999C19.0074 6.94407 18.9226 6.38735 18.7251 5.86662C18.5276 5.3459 18.2218 4.87301 17.828 4.4792C17.4342 4.08538 16.9613 3.77961 16.4406 3.58209C15.9198 3.38456 15.3631 3.29977 14.8072 3.33332ZM12.2155 10.8583L10.1572 12.0917C9.32387 12.5917 8.64053 12.2083 8.64053 11.2333V8.75832C8.64053 7.78332 9.32387 7.39999 10.1572 7.89999L12.2155 9.13332C12.3902 9.20007 12.5405 9.31826 12.6465 9.47227C12.7525 9.62628 12.8093 9.80885 12.8093 9.99582C12.8093 10.1828 12.7525 10.3654 12.6465 10.5194C12.5405 10.6734 12.3902 10.7916 12.2155 10.8583Z" fill="white"/>
</g>
<defs>
<clipPath id="clip0_45_660">
<rect width="20" height="20" fill="white" transform="translate(0.640625)"/>
</clipPath>
</defs>
</svg>
